<?xml version="1.0" standalone="no"?>
<svg xmlns:xlink="http://www.w3.org/1999/xlink" id="wave" style="transform:rotate(0deg); transition: 0.3s" viewBox="0 0 1440 170" version="1.1" xmlns="http://www.w3.org/2000/svg"><defs><linearGradient id="sw-gradient-0" x1="0" x2="0" y1="1" y2="0"><stop stop-color="rgba(13, 6, 26, 1)" offset="0%"/><stop stop-color="rgba(196, 185, 32, 1)" offset="100%"/></linearGradient></defs><path style="transform:translate(0, 0px); opacity:1" fill="url(#sw-gradient-0)" d="M0,85L10,93.5C20,102,40,119,60,107.7C80,96,100,57,120,48.2C140,40,160,62,180,73.7C200,85,220,85,240,79.3C260,74,280,62,300,62.3C320,62,340,74,360,82.2C380,91,400,96,420,107.7C440,119,460,136,480,121.8C500,108,520,62,540,53.8C560,45,580,74,600,93.5C620,113,640,125,660,110.5C680,96,700,57,720,36.8C740,17,760,17,780,25.5C800,34,820,51,840,48.2C860,45,880,23,900,17C920,11,940,23,960,22.7C980,23,1000,11,1020,5.7C1040,0,1060,0,1080,17C1100,34,1120,68,1140,73.7C1160,79,1180,57,1200,56.7C1220,57,1240,79,1260,87.8C1280,96,1300,91,1320,79.3C1340,68,1360,51,1380,56.7C1400,62,1420,91,1430,104.8L1440,119L1440,170L1430,170C1420,170,1400,170,1380,170C1360,170,1340,170,1320,170C1300,170,1280,170,1260,170C1240,170,1220,170,1200,170C1180,170,1160,170,1140,170C1120,170,1100,170,1080,170C1060,170,1040,170,1020,170C1000,170,980,170,960,170C940,170,920,170,900,170C880,170,860,170,840,170C820,170,800,170,780,170C760,170,740,170,720,170C700,170,680,170,660,170C640,170,620,170,600,170C580,170,560,170,540,170C520,170,500,170,480,170C460,170,440,170,420,170C400,170,380,170,360,170C340,170,320,170,300,170C280,170,260,170,240,170C220,170,200,170,180,170C160,170,140,170,120,170C100,170,80,170,60,170C40,170,20,170,10,170L0,170Z"/></svg>